<svg xmlns="http://www.w3.org/2000/svg" width="1200" height="630" viewBox="0 0 1200 630">
  <defs>
    <linearGradient id="bg" x1="0" y1="0" x2="1" y2="1">
      <stop offset="0%" stop-color="#0b0d11"/>
      <stop offset="100%" stop-color="#121820"/>
    </linearGradient>
    <linearGradient id="glow" x1="0.5" y1="0" x2="0.5" y2="1">
      <stop offset="0%" stop-color="#15803d" stop-opacity="0.15"/>
      <stop offset="100%" stop-color="#15803d" stop-opacity="0"/>
    </linearGradient>
  </defs>
  <rect width="1200" height="630" fill="url(#bg)"/>
  <rect x="0" y="0" width="1200" height="300" fill="url(#glow)"/>

  <!-- Logo mark -->
  <g transform="translate(540, 140) scale(2.2)">
    <path d="M27.9749 1C27.9379 1 27.9008 1 23.9965 4.32453C20.0923 7.64905 12.3218 14.2981 8.54452 17.7585C4.76722 21.2188 5.21853 21.289 5.88295 21.2985C7.41171 21.3203 9.80248 20.8938 15.8167 19.2379C20.3583 17.9874 27.809 15.5024 31.5485 14.4106C35.2881 13.3187 35.0611 13.5926 29.55 17.9399C24.0389 22.2873 13.2506 30.6998 7.53426 35.1927C1.81794 39.6855 1.50056 40.0037 1 40.5535" stroke="#22c55e" stroke-width="2.5" stroke-linecap="round" fill="none"/>
    <path d="M19.2421 13.5811C17.6484 14.7615 12.4172 19.1185 8.8643 22.8112C7.45729 24.2736 7.23076 25.2409 9.07163 24.8549C15.1463 23.581 19.3958 20.9663 18.4255 21.8979C17.1163 22.9179 14.1488 25.0487 12.4269 26.31C10.7051 27.5713 10.3188 27.8986 9.74592 28.5112" stroke="#22c55e" stroke-width="2.5" stroke-linecap="round" fill="none"/>
  </g>

  <!-- Title -->
  <text x="600" y="380" text-anchor="middle" font-family="system-ui, -apple-system, sans-serif" font-size="64" font-weight="700" fill="#ececef" letter-spacing="-2">supawake</text>

  <!-- Subtitle -->
  <text x="600" y="430" text-anchor="middle" font-family="system-ui, -apple-system, sans-serif" font-size="24" font-weight="400" fill="#9b9faa">Keep your Supabase projects alive</text>

  <!-- Badge -->
  <rect x="475" y="465" width="250" height="36" rx="18" fill="none" stroke="#2a2d36" stroke-width="1"/>
  <text x="600" y="489" text-anchor="middle" font-family="ui-monospace, monospace" font-size="14" font-weight="500" fill="#22c55e">npm install -g supawake</text>

  <!-- Bottom border accent -->
  <rect x="0" y="626" width="1200" height="4" fill="#15803d"/>
</svg>
